<svg width="20" height="36" viewBox="0 0 20 36" fill="none" xmlns="http://www.w3.org/2000/svg">
<path d="M0 18C0 18.497 0.279846 18.9 0.625 18.9H11.6163L8.30811 23.6637C8.19092 23.8324 8.12508 24.0613 8.12508 24.2999C8.125 24.7969 8.40485 25.1999 8.75 25.2C8.91579 25.2002 9.07478 25.1054 9.19182 24.9363L13.5668 18.6363C13.5667 18.6364 13.5669 18.6362 13.5668 18.6363C13.8107 18.2849 13.8109 17.715 13.5668 17.3638L9.19182 11.0638C8.94966 10.7269 8.56567 10.7269 8.32344 11.0638C8.07518 11.4091 8.06831 11.9788 8.30811 12.3363L11.6163 17.1H0.625C0.279846 17.1 0 17.503 0 18ZM16.875 0H3.125C1.39977 0.00230706 0.00160212 2.01566 0 4.5V11.7C0 12.197 0.279846 12.6 0.625 12.6C0.970154 12.6 1.25 12.197 1.25 11.7V4.5C1.25114 3.00948 2.08992 1.80165 3.125 1.8H16.875C17.9101 1.80165 18.7489 3.00948 18.75 4.5V31.5C18.7489 32.9905 17.9101 34.1984 16.875 34.2H3.125C2.08992 34.1984 1.25114 32.9905 1.25 31.5V24.3C1.25 23.803 0.970154 23.4 0.625 23.4C0.279846 23.4 0 23.803 0 24.3V31.5C0.00160212 33.9843 1.39977 35.9977 3.125 36H16.875C18.6002 35.9977 19.9984 33.9843 20 31.5V4.5C19.9984 2.01566 18.6002 0.00230706 16.875 0Z" fill="white"/>
</svg>
