<svg width="34" height="41" viewBox="0 0 34 41" fill="none" xmlns="http://www.w3.org/2000/svg">
<g clip-path="url(#clip0_74_17917)">
<path d="M15.4914 11.3797L23.4092 20.9984C24.9308 22.8468 24.9308 25.8411 23.4092 27.6896C21.8876 29.5381 19.4228 29.5381 17.9012 27.6896L9.29484 17.2346C8.3447 16.0803 8.3447 14.2068 9.29484 13.0525C10.245 11.8983 11.7872 11.8983 12.7374 13.0525L19.9667 21.8348C20.3454 22.2948 20.3454 23.0476 19.9667 23.5076C19.588 23.9676 18.9684 23.9676 18.5897 23.5076L12.0489 15.5618L11.0161 16.8164L17.5569 24.7622C18.5071 25.9164 20.0493 25.9164 20.9995 24.7622C21.9496 23.608 21.9496 21.7344 20.9995 20.5802L13.7701 11.7979C12.2485 9.94949 9.78368 9.94949 8.26208 11.7979C6.74048 13.6464 6.74048 16.6407 8.26208 18.4892L16.8684 28.9442C18.9615 31.4869 22.3489 31.4869 24.442 28.9442C26.535 26.4015 26.535 22.2864 24.442 19.7438L16.5242 10.1251L15.4914 11.3797Z" fill="#86979F"/>
</g>
<defs>
<clipPath id="clip0_74_17917">
<rect width="26" height="26" fill="white" transform="matrix(0.635544 -0.772064 0.635544 0.772064 0 20.1621)"/>
</clipPath>
</defs>
</svg>
