<svg width="32" height="24" viewBox="0 0 32 24" fill="none" xmlns="http://www.w3.org/2000/svg">
<path d="M30.5 10.59L2.49998 0.58997C1.94999 0.39002 1.33 0.53998 0.919963 0.95997C0.509993 1.38 0.389993 2.01001 0.609973 2.56L3.52879 9.87079C3.68052 10.2507 4.04838 10.5 4.4575 10.5H12.16C12.99 10.5 13.66 11.17 13.66 12C13.66 12.83 12.99 13.5 12.16 13.5H4.4575C4.04838 13.5 3.68052 13.7492 3.52879 14.1292L0.609973 21.44C0.390003 21.99 0.509993 22.62 0.919973 23.04C1.21 23.34 1.59996 23.5 1.99998 23.5C2.16996 23.5 2.34001 23.47 2.49998 23.41L30.5 13.41C31.1 13.2 31.5 12.63 31.5 12C31.5 11.37 31.1 10.8 30.5 10.59Z" fill="white"/>
</svg>
