<svg width="22" height="31" viewBox="0 0 22 31" fill="none" xmlns="http://www.w3.org/2000/svg">
<g clip-path="url(#clip0_74_17939)">
<path d="M11 18.0835C12.5217 18.0835 13.75 16.3527 13.75 14.2085V6.4585C13.75 4.31433 12.5217 2.5835 11 2.5835C9.47833 2.5835 8.25 4.31433 8.25 6.4585V14.2085C8.25 16.3527 9.47833 18.0835 11 18.0835Z" fill="white"/>
<path d="M15.5833 14.2085C15.5833 17.7735 13.53 20.6668 11 20.6668C8.47001 20.6668 6.41668 17.7735 6.41668 14.2085H4.58334C4.58334 18.7681 6.97584 22.5139 10.0833 23.1468V27.1252H11.9167V23.1468C15.0242 22.5139 17.4167 18.7681 17.4167 14.2085H15.5833Z" fill="white"/>
</g>
<defs>
<clipPath id="clip0_74_17939">
<rect width="22" height="31" fill="white"/>
</clipPath>
</defs>
</svg>
