<svg width="20" height="20" viewBox="0 0 20 20" fill="none" xmlns="http://www.w3.org/2000/svg">
<circle cx="10" cy="10" r="10" fill="#899AA2"/>
<path fill-rule="evenodd" clip-rule="evenodd" d="M7.33472 5.66275C6.89377 5.65572 6.46912 5.88583 6.15586 6.30157C5.8426 6.71731 5.66688 7.28395 5.66806 7.87463C5.66806 9.10756 6.41425 10.107 7.33472 10.107C8.25519 10.107 9.00138 9.10756 9.00138 7.87463C9.00256 7.28395 8.82685 6.71731 8.51359 6.30157C8.20032 5.88583 7.77568 5.65572 7.33472 5.66275ZM16.6643 11.7227C16.1318 14.6002 13.3545 17.0027 9.99877 17.0027C6.66977 17.0027 3.90877 14.6352 3.34502 11.7902C3.23077 11.0802 3.81227 10.9127 4.36002 11.0452C6.19242 11.575 8.0927 11.8328 10 11.8102C11.903 11.8323 13.799 11.5754 15.6275 11.0477C16.16 10.9127 16.7303 11.0652 16.6643 11.7227ZM14.8566 12.1227C14.8046 12.1427 14.7519 12.1577 14.6986 12.1752C14.6931 12.1777 14.8691 12.1202 14.8639 12.1227C13.2827 12.558 11.6483 12.7693 10.0084 12.7502C8.05136 12.7502 6.30111 12.5327 5.09661 12.1002C4.22336 11.8402 4.39086 12.8677 5.00461 13.1827C6.57475 13.8975 8.28305 14.2577 10.0081 14.2377C12.0601 14.2377 13.8886 13.7602 15.0964 13.1427C15.6679 12.7752 15.7809 11.7902 14.8566 12.1227ZM13.6679 5.66275C13.227 5.65577 12.8024 5.88416 12.4892 6.29681C12.1759 6.70946 12.0002 7.27191 12.0012 7.85826C11.9924 8.65773 12.3081 9.40153 12.8274 9.80468C13.3466 10.2078 13.9889 10.2078 14.5081 9.80468C15.0273 9.40153 15.343 8.65773 15.3342 7.85826C15.3353 7.27199 15.1596 6.70962 14.8464 6.29698C14.5332 5.88435 14.1087 5.6559 13.6679 5.66275Z" fill="#50555C"/>
</svg>
